<?xml version="1.0" encoding="UTF-8" standalone="no"?>
<!-- Created with Inkscape (http://www.inkscape.org/) -->

<svg
   xmlns:dc="http://purl.org/dc/elements/1.1/"
   xmlns:cc="http://creativecommons.org/ns#"
   xmlns:rdf="http://www.w3.org/1999/02/22-rdf-syntax-ns#"
   xmlns:svg="http://www.w3.org/2000/svg"
   xmlns="http://www.w3.org/2000/svg"
   xmlns:sodipodi="http://sodipodi.sourceforge.net/DTD/sodipodi-0.dtd"
   xmlns:inkscape="http://www.inkscape.org/namespaces/inkscape"
   id="svg3336"
   version="1.1"
   inkscape:version="0.91 r13725"
   width="511.54297"
   height="219.38524"
   viewBox="0 0 511.54297 219.38523"
   sodipodi:docname="MiarangiBay Logo SVG.svg"
   inkscape:export-filename="G:\Development\1. Projects\Mairangi Bay Tennis Club\path4212.png"
   inkscape:export-xdpi="275.55081"
   inkscape:export-ydpi="275.55081"
   style="shape-rendering:crispEdges">
  <metadata
     id="metadata3342">
    <rdf:RDF>
      <cc:Work
         rdf:about="">
        <dc:format>image/svg+xml</dc:format>
        <dc:type
           rdf:resource="http://purl.org/dc/dcmitype/StillImage" />
        <dc:title></dc:title>
      </cc:Work>
    </rdf:RDF>
  </metadata>
  <defs
     id="defs3340" />
  <sodipodi:namedview
     pagecolor="#ffffff"
     bordercolor="#666666"
     borderopacity="1"
     objecttolerance="10"
     gridtolerance="10"
     guidetolerance="10"
     inkscape:pageopacity="0"
     inkscape:pageshadow="2"
     inkscape:window-width="1920"
     inkscape:window-height="1017"
     id="namedview3338"
     showgrid="false"
     fit-margin-top="0"
     fit-margin-left="0"
     fit-margin-right="0"
     fit-margin-bottom="0"
     inkscape:zoom="1.9940411"
     inkscape:cx="226.60912"
     inkscape:cy="99.682291"
     inkscape:window-x="-8"
     inkscape:window-y="-8"
     inkscape:window-maximized="1"
     inkscape:current-layer="svg3336"
     inkscape:showpageshadow="false"
     borderlayer="false" />
  <path
     style="fill:#8ec63f;fill-opacity:1"
     d="m 303.80791,177.39102 c -2.41017,-0.69917 -5.2579,-3.1057 -7.5,-6.33805 -3.31552,-4.77985 -3.64488,-6.25419 -3.98161,-17.82263 -0.3948,-13.56361 -0.13591,-14.66973 10.26575,-43.86172 9.14208,-25.657042 4.40213,-41.48068 -15.91614,-53.133675 l -6.48252,-3.71788 28.39061,-0.01175 c 32.46148,-0.01341 37.37268,1.018644 47.57274,9.997091 7.51535,6.615276 9.66165,11.542495 9.66165,22.180043 0,7.59934 -0.44903,9.29598 -3.58904,13.5611 -3.96037,5.379461 -9.52591,10.748051 -13.11062,12.646691 -1.83279,0.97074 -0.75827,1.3733 5.07821,1.90254 13.31613,1.20746 23.93,8.57364 29.28728,20.32582 3.29401,7.22601 3.21776,24.06665 -0.13747,30.3623 -2.91461,5.46889 -5.58446,8.63451 -10.50944,12.46096 -3.52215,2.73654 -4.32215,2.79912 -34.375,2.689 -16.92291,-0.062 -32.51738,-0.61993 -34.6544,-1.23986 z"
     id="path4212"
     inkscape:connector-curvature="0" />
  <path
     style="fill:#23408e;fill-opacity:1"
     d="m 108.31839,175.73388 c 0,-0.96785 5.625,-29.11676 12.5,-62.55315 6.875,-33.436394 12.5,-61.050764 12.5,-61.36528 0,-0.314515 11.14354,-0.571845 24.76342,-0.571845 l 24.76343,0 8.67408,25.575672 8.67408,25.575683 6.31993,-25.263183 6.31992,-25.263172 13.4355,-0.355479 c 7.38954,-0.195513 19.17056,-0.195513 26.18008,0 l 12.74456,0.355479 -5.83251,3.428664 c -13.79173,8.107523 -18.47396,16.266737 -18.51504,32.264106 -0.0247,9.625924 0.3269,11.251554 3.52409,16.292985 5.45641,8.60386 11.20315,14.62952 19.00571,19.92813 8.71616,5.91904 16.28798,14.34253 20.51218,22.81942 2.75712,5.53281 3.18057,8.01412 3.18057,18.63713 l 0,12.25458 -20,0 c -11,0 -20,-0.20643 -20,-0.45874 0,-0.69401 -14.8854,-48.63702 -15.76974,-50.79126 -0.42332,-1.03125 -3.22507,8.8125 -6.22609,21.875 -3.00101,13.0625 -5.7591,25.01562 -6.1291,26.5625 -0.65923,2.75621 -1.03495,2.8125 -18.77387,2.8125 -9.95566,0 -18.12784,-0.14063 -18.16041,-0.3125 -0.0326,-0.17188 -3.04957,-12.40625 -6.70446,-27.1875 -7.57945,-30.65313 -5.9575,-30.50006 -13.24639,-1.25 -2.14149,8.59375 -4.74271,18.57812 -5.78048,22.1875 l -1.88686,6.5625 -23.0363,0 c -18.97274,0 -23.0363,-0.31041 -23.0363,-1.75974 z"
     id="path4210"
     inkscape:connector-curvature="0" />
  <path
     style="fill:#8ec63f;fill-opacity:1"
     d="m 245.85558,45.514261 c -9.81736,-4.258203 -14.29467,-12.124833 -13.55069,-23.808653 0.40991,-6.43763 1.17865,-8.70621 4.2261,-12.4714296 C 241.77552,2.7543882 247.53878,-0.0076617 255.79889,8.298093e-6 277.6248,0.0203083 287.46438,26.367728 271.28851,41.476582 c -6.62457,6.187599 -16.76475,7.797432 -25.43293,4.037679 z"
     id="path3376"
     inkscape:connector-curvature="0" />
  <text
     xml:space="preserve"
     style="font-style:normal;font-weight:normal;font-size:40px;line-height:125%;font-family:sans-serif;text-align:center;letter-spacing:0px;word-spacing:0px;text-anchor:middle;fill:#000000;fill-opacity:1;stroke:none;stroke-width:1px;stroke-linecap:butt;stroke-linejoin:miter;stroke-opacity:1"
     x="255.60547"
     y="209.8735"
     id="text4143"
     sodipodi:linespacing="125%"><tspan
       sodipodi:role="line"
       id="tspan4145"
       x="255.60547"
       y="209.8735"
       style="font-style:normal;font-variant:normal;font-weight:normal;font-stretch:normal;font-family:'Eras Bold ITC';-inkscape-font-specification:'Eras Bold ITC';text-align:center;text-anchor:middle;opacity:0;fill:#23408e;fill-opacity:1">Mairangi Bay Tennis Club</tspan></text>
</svg>
